%TF.GenerationSoftware,KiCad,Pcbnew,8.0.4*%
%TF.CreationDate,2024-11-11T12:12:06-05:00*%
%TF.ProjectId,HC-SR04sensor,48432d53-5230-4347-9365-6e736f722e6b,rev?*%
%TF.SameCoordinates,Original*%
%TF.FileFunction,Legend,Top*%
%TF.FilePolarity,Positive*%
%FSLAX46Y46*%
G04 Gerber Fmt 4.6, Leading zero omitted, Abs format (unit mm)*
G04 Created by KiCad (PCBNEW 8.0.4) date 2024-11-11 12:12:06*
%MOMM*%
%LPD*%
G01*
G04 APERTURE LIST*
%ADD10C,0.100000*%
%ADD11C,0.150000*%
%ADD12C,0.120000*%
%ADD13C,0.127000*%
G04 APERTURE END LIST*
D10*
X144042580Y-100833333D02*
X144518771Y-100500000D01*
X144042580Y-100261905D02*
X145042580Y-100261905D01*
X145042580Y-100261905D02*
X145042580Y-100642857D01*
X145042580Y-100642857D02*
X144994961Y-100738095D01*
X144994961Y-100738095D02*
X144947342Y-100785714D01*
X144947342Y-100785714D02*
X144852104Y-100833333D01*
X144852104Y-100833333D02*
X144709247Y-100833333D01*
X144709247Y-100833333D02*
X144614009Y-100785714D01*
X144614009Y-100785714D02*
X144566390Y-100738095D01*
X144566390Y-100738095D02*
X144518771Y-100642857D01*
X144518771Y-100642857D02*
X144518771Y-100261905D01*
X145042580Y-101166667D02*
X145042580Y-101785714D01*
X145042580Y-101785714D02*
X144661628Y-101452381D01*
X144661628Y-101452381D02*
X144661628Y-101595238D01*
X144661628Y-101595238D02*
X144614009Y-101690476D01*
X144614009Y-101690476D02*
X144566390Y-101738095D01*
X144566390Y-101738095D02*
X144471152Y-101785714D01*
X144471152Y-101785714D02*
X144233057Y-101785714D01*
X144233057Y-101785714D02*
X144137819Y-101738095D01*
X144137819Y-101738095D02*
X144090200Y-101690476D01*
X144090200Y-101690476D02*
X144042580Y-101595238D01*
X144042580Y-101595238D02*
X144042580Y-101309524D01*
X144042580Y-101309524D02*
X144090200Y-101214286D01*
X144090200Y-101214286D02*
X144137819Y-101166667D01*
X117042580Y-101333333D02*
X117518771Y-101000000D01*
X117042580Y-100761905D02*
X118042580Y-100761905D01*
X118042580Y-100761905D02*
X118042580Y-101142857D01*
X118042580Y-101142857D02*
X117994961Y-101238095D01*
X117994961Y-101238095D02*
X117947342Y-101285714D01*
X117947342Y-101285714D02*
X117852104Y-101333333D01*
X117852104Y-101333333D02*
X117709247Y-101333333D01*
X117709247Y-101333333D02*
X117614009Y-101285714D01*
X117614009Y-101285714D02*
X117566390Y-101238095D01*
X117566390Y-101238095D02*
X117518771Y-101142857D01*
X117518771Y-101142857D02*
X117518771Y-100761905D01*
X117947342Y-101714286D02*
X117994961Y-101761905D01*
X117994961Y-101761905D02*
X118042580Y-101857143D01*
X118042580Y-101857143D02*
X118042580Y-102095238D01*
X118042580Y-102095238D02*
X117994961Y-102190476D01*
X117994961Y-102190476D02*
X117947342Y-102238095D01*
X117947342Y-102238095D02*
X117852104Y-102285714D01*
X117852104Y-102285714D02*
X117756866Y-102285714D01*
X117756866Y-102285714D02*
X117614009Y-102238095D01*
X117614009Y-102238095D02*
X117042580Y-101666667D01*
X117042580Y-101666667D02*
X117042580Y-102285714D01*
D11*
X140166666Y-118684819D02*
X140166666Y-119399104D01*
X140166666Y-119399104D02*
X140119047Y-119541961D01*
X140119047Y-119541961D02*
X140023809Y-119637200D01*
X140023809Y-119637200D02*
X139880952Y-119684819D01*
X139880952Y-119684819D02*
X139785714Y-119684819D01*
X141071428Y-119018152D02*
X141071428Y-119684819D01*
X140833333Y-118637200D02*
X140595238Y-119351485D01*
X140595238Y-119351485D02*
X141214285Y-119351485D01*
X113166666Y-118684819D02*
X113166666Y-119399104D01*
X113166666Y-119399104D02*
X113119047Y-119541961D01*
X113119047Y-119541961D02*
X113023809Y-119637200D01*
X113023809Y-119637200D02*
X112880952Y-119684819D01*
X112880952Y-119684819D02*
X112785714Y-119684819D01*
X113547619Y-118684819D02*
X114166666Y-118684819D01*
X114166666Y-118684819D02*
X113833333Y-119065771D01*
X113833333Y-119065771D02*
X113976190Y-119065771D01*
X113976190Y-119065771D02*
X114071428Y-119113390D01*
X114071428Y-119113390D02*
X114119047Y-119161009D01*
X114119047Y-119161009D02*
X114166666Y-119256247D01*
X114166666Y-119256247D02*
X114166666Y-119494342D01*
X114166666Y-119494342D02*
X114119047Y-119589580D01*
X114119047Y-119589580D02*
X114071428Y-119637200D01*
X114071428Y-119637200D02*
X113976190Y-119684819D01*
X113976190Y-119684819D02*
X113690476Y-119684819D01*
X113690476Y-119684819D02*
X113595238Y-119637200D01*
X113595238Y-119637200D02*
X113547619Y-119589580D01*
X115789819Y-83758094D02*
X114789819Y-83758094D01*
X114789819Y-83758094D02*
X114789819Y-83519999D01*
X114789819Y-83519999D02*
X114837438Y-83377142D01*
X114837438Y-83377142D02*
X114932676Y-83281904D01*
X114932676Y-83281904D02*
X115027914Y-83234285D01*
X115027914Y-83234285D02*
X115218390Y-83186666D01*
X115218390Y-83186666D02*
X115361247Y-83186666D01*
X115361247Y-83186666D02*
X115551723Y-83234285D01*
X115551723Y-83234285D02*
X115646961Y-83281904D01*
X115646961Y-83281904D02*
X115742200Y-83377142D01*
X115742200Y-83377142D02*
X115789819Y-83519999D01*
X115789819Y-83519999D02*
X115789819Y-83758094D01*
X115789819Y-82234285D02*
X115789819Y-82805713D01*
X115789819Y-82519999D02*
X114789819Y-82519999D01*
X114789819Y-82519999D02*
X114932676Y-82615237D01*
X114932676Y-82615237D02*
X115027914Y-82710475D01*
X115027914Y-82710475D02*
X115075533Y-82805713D01*
X124166666Y-101684819D02*
X124166666Y-102399104D01*
X124166666Y-102399104D02*
X124119047Y-102541961D01*
X124119047Y-102541961D02*
X124023809Y-102637200D01*
X124023809Y-102637200D02*
X123880952Y-102684819D01*
X123880952Y-102684819D02*
X123785714Y-102684819D01*
X125166666Y-102684819D02*
X124595238Y-102684819D01*
X124880952Y-102684819D02*
X124880952Y-101684819D01*
X124880952Y-101684819D02*
X124785714Y-101827676D01*
X124785714Y-101827676D02*
X124690476Y-101922914D01*
X124690476Y-101922914D02*
X124595238Y-101970533D01*
D10*
X128242580Y-121833333D02*
X128718771Y-121500000D01*
X128242580Y-121261905D02*
X129242580Y-121261905D01*
X129242580Y-121261905D02*
X129242580Y-121642857D01*
X129242580Y-121642857D02*
X129194961Y-121738095D01*
X129194961Y-121738095D02*
X129147342Y-121785714D01*
X129147342Y-121785714D02*
X129052104Y-121833333D01*
X129052104Y-121833333D02*
X128909247Y-121833333D01*
X128909247Y-121833333D02*
X128814009Y-121785714D01*
X128814009Y-121785714D02*
X128766390Y-121738095D01*
X128766390Y-121738095D02*
X128718771Y-121642857D01*
X128718771Y-121642857D02*
X128718771Y-121261905D01*
X128242580Y-122785714D02*
X128242580Y-122214286D01*
X128242580Y-122500000D02*
X129242580Y-122500000D01*
X129242580Y-122500000D02*
X129099723Y-122404762D01*
X129099723Y-122404762D02*
X129004485Y-122309524D01*
X129004485Y-122309524D02*
X128956866Y-122214286D01*
D11*
X126724819Y-67833333D02*
X127439104Y-67833333D01*
X127439104Y-67833333D02*
X127581961Y-67880952D01*
X127581961Y-67880952D02*
X127677200Y-67976190D01*
X127677200Y-67976190D02*
X127724819Y-68119047D01*
X127724819Y-68119047D02*
X127724819Y-68214285D01*
X126820057Y-67404761D02*
X126772438Y-67357142D01*
X126772438Y-67357142D02*
X126724819Y-67261904D01*
X126724819Y-67261904D02*
X126724819Y-67023809D01*
X126724819Y-67023809D02*
X126772438Y-66928571D01*
X126772438Y-66928571D02*
X126820057Y-66880952D01*
X126820057Y-66880952D02*
X126915295Y-66833333D01*
X126915295Y-66833333D02*
X127010533Y-66833333D01*
X127010533Y-66833333D02*
X127153390Y-66880952D01*
X127153390Y-66880952D02*
X127724819Y-67452380D01*
X127724819Y-67452380D02*
X127724819Y-66833333D01*
X103252649Y-141146249D02*
X103252649Y-141956194D01*
X103252649Y-141956194D02*
X103300292Y-142051482D01*
X103300292Y-142051482D02*
X103347936Y-142099126D01*
X103347936Y-142099126D02*
X103443224Y-142146769D01*
X103443224Y-142146769D02*
X103633799Y-142146769D01*
X103633799Y-142146769D02*
X103729087Y-142099126D01*
X103729087Y-142099126D02*
X103776730Y-142051482D01*
X103776730Y-142051482D02*
X103824374Y-141956194D01*
X103824374Y-141956194D02*
X103824374Y-141146249D01*
X104824894Y-142146769D02*
X104253169Y-142146769D01*
X104539032Y-142146769D02*
X104539032Y-141146249D01*
X104539032Y-141146249D02*
X104443744Y-141289181D01*
X104443744Y-141289181D02*
X104348456Y-141384468D01*
X104348456Y-141384468D02*
X104253169Y-141432112D01*
D10*
X128042580Y-86333333D02*
X128518771Y-86000000D01*
X128042580Y-85761905D02*
X129042580Y-85761905D01*
X129042580Y-85761905D02*
X129042580Y-86142857D01*
X129042580Y-86142857D02*
X128994961Y-86238095D01*
X128994961Y-86238095D02*
X128947342Y-86285714D01*
X128947342Y-86285714D02*
X128852104Y-86333333D01*
X128852104Y-86333333D02*
X128709247Y-86333333D01*
X128709247Y-86333333D02*
X128614009Y-86285714D01*
X128614009Y-86285714D02*
X128566390Y-86238095D01*
X128566390Y-86238095D02*
X128518771Y-86142857D01*
X128518771Y-86142857D02*
X128518771Y-85761905D01*
X129042580Y-87238095D02*
X129042580Y-86761905D01*
X129042580Y-86761905D02*
X128566390Y-86714286D01*
X128566390Y-86714286D02*
X128614009Y-86761905D01*
X128614009Y-86761905D02*
X128661628Y-86857143D01*
X128661628Y-86857143D02*
X128661628Y-87095238D01*
X128661628Y-87095238D02*
X128614009Y-87190476D01*
X128614009Y-87190476D02*
X128566390Y-87238095D01*
X128566390Y-87238095D02*
X128471152Y-87285714D01*
X128471152Y-87285714D02*
X128233057Y-87285714D01*
X128233057Y-87285714D02*
X128137819Y-87238095D01*
X128137819Y-87238095D02*
X128090200Y-87190476D01*
X128090200Y-87190476D02*
X128042580Y-87095238D01*
X128042580Y-87095238D02*
X128042580Y-86857143D01*
X128042580Y-86857143D02*
X128090200Y-86761905D01*
X128090200Y-86761905D02*
X128137819Y-86714286D01*
D11*
X142789819Y-84258094D02*
X141789819Y-84258094D01*
X141789819Y-84258094D02*
X141789819Y-84019999D01*
X141789819Y-84019999D02*
X141837438Y-83877142D01*
X141837438Y-83877142D02*
X141932676Y-83781904D01*
X141932676Y-83781904D02*
X142027914Y-83734285D01*
X142027914Y-83734285D02*
X142218390Y-83686666D01*
X142218390Y-83686666D02*
X142361247Y-83686666D01*
X142361247Y-83686666D02*
X142551723Y-83734285D01*
X142551723Y-83734285D02*
X142646961Y-83781904D01*
X142646961Y-83781904D02*
X142742200Y-83877142D01*
X142742200Y-83877142D02*
X142789819Y-84019999D01*
X142789819Y-84019999D02*
X142789819Y-84258094D01*
X141885057Y-83305713D02*
X141837438Y-83258094D01*
X141837438Y-83258094D02*
X141789819Y-83162856D01*
X141789819Y-83162856D02*
X141789819Y-82924761D01*
X141789819Y-82924761D02*
X141837438Y-82829523D01*
X141837438Y-82829523D02*
X141885057Y-82781904D01*
X141885057Y-82781904D02*
X141980295Y-82734285D01*
X141980295Y-82734285D02*
X142075533Y-82734285D01*
X142075533Y-82734285D02*
X142218390Y-82781904D01*
X142218390Y-82781904D02*
X142789819Y-83353332D01*
X142789819Y-83353332D02*
X142789819Y-82734285D01*
D10*
%TO.C,R3*%
X140500000Y-92350000D02*
X140500000Y-97150000D01*
X142250000Y-97150000D02*
X138750000Y-97150000D01*
X142350000Y-97250000D02*
X142350000Y-104750000D01*
X138650000Y-97250000D02*
X138650000Y-104750000D01*
X142250000Y-104850000D02*
X138750000Y-104850000D01*
X140500000Y-104850000D02*
X140500000Y-109650000D01*
%TO.C,R2*%
X113500000Y-92850000D02*
X113500000Y-97650000D01*
X115250000Y-97650000D02*
X111750000Y-97650000D01*
X115350000Y-97750000D02*
X115350000Y-105250000D01*
X111650000Y-97750000D02*
X111650000Y-105250000D01*
X115250000Y-105350000D02*
X111750000Y-105350000D01*
X113500000Y-105350000D02*
X113500000Y-110150000D01*
D12*
%TO.C,J4*%
X139170000Y-123210000D02*
X139170000Y-123330000D01*
X139170000Y-123330000D02*
X141830000Y-123330000D01*
X140500000Y-120670000D02*
X141830000Y-120670000D01*
X141830000Y-120670000D02*
X141830000Y-122000000D01*
X141830000Y-123210000D02*
X141830000Y-123330000D01*
%TO.C,J3*%
X112170000Y-123210000D02*
X112170000Y-123330000D01*
X112170000Y-123330000D02*
X114830000Y-123330000D01*
X113500000Y-120670000D02*
X114830000Y-120670000D01*
X114830000Y-120670000D02*
X114830000Y-122000000D01*
X114830000Y-123210000D02*
X114830000Y-123330000D01*
%TO.C,D1*%
X107085000Y-81460000D02*
X103225000Y-81460000D01*
X107085000Y-81460000D02*
X107085000Y-84580000D01*
X112295000Y-81750000D02*
X112295000Y-81750000D01*
X112295000Y-81750000D02*
X107085000Y-81750000D01*
X107085000Y-81750000D02*
X112295000Y-81750000D01*
X107085000Y-81750000D02*
X107085000Y-81750000D01*
X112295000Y-84290000D02*
X112295000Y-84290000D01*
X112295000Y-84290000D02*
X107085000Y-84290000D01*
X107085000Y-84290000D02*
X112295000Y-84290000D01*
X107085000Y-84290000D02*
X107085000Y-84290000D01*
X107085000Y-84580000D02*
X103225000Y-84580000D01*
X107085000Y-84580000D02*
X107085000Y-84980000D01*
X105965000Y-84580000D02*
X107085000Y-84580000D01*
X107085000Y-84980000D02*
X105965000Y-84980000D01*
X105965000Y-84980000D02*
X105965000Y-84580000D01*
X103225000Y-84580000D02*
G75*
G02*
X103225000Y-81460000I0J1560000D01*
G01*
%TO.C,J1*%
X123170000Y-106210000D02*
X123170000Y-106330000D01*
X123170000Y-106330000D02*
X125830000Y-106330000D01*
X124500000Y-103670000D02*
X125830000Y-103670000D01*
X125830000Y-103670000D02*
X125830000Y-105000000D01*
X125830000Y-106210000D02*
X125830000Y-106330000D01*
D10*
%TO.C,R1*%
X122650000Y-118250000D02*
X122650000Y-125750000D01*
X124500000Y-113350000D02*
X124500000Y-118150000D01*
X124500000Y-125850000D02*
X124500000Y-130650000D01*
X126250000Y-118150000D02*
X122750000Y-118150000D01*
X126250000Y-125850000D02*
X122750000Y-125850000D01*
X126350000Y-118250000D02*
X126350000Y-125750000D01*
D12*
%TO.C,J2*%
X118090000Y-66170000D02*
X118090000Y-68830000D01*
X123230000Y-66170000D02*
X118090000Y-66170000D01*
X123230000Y-66170000D02*
X123230000Y-68830000D01*
X123230000Y-68830000D02*
X118090000Y-68830000D01*
X125830000Y-67500000D02*
X125830000Y-68830000D01*
X125830000Y-68830000D02*
X124500000Y-68830000D01*
D13*
%TO.C,U1*%
X101000000Y-142645000D02*
X146000000Y-142645000D01*
X101000000Y-143845000D02*
X101000000Y-142645000D01*
X102000000Y-143845000D02*
X101000000Y-143845000D01*
X102000000Y-143845000D02*
X102000000Y-157645000D01*
X102000000Y-157645000D02*
X118000000Y-157645000D01*
X118000000Y-143845000D02*
X102000000Y-143845000D01*
X118000000Y-143845000D02*
X118000000Y-157645000D01*
X129000000Y-143845000D02*
X118000000Y-143845000D01*
X129000000Y-143845000D02*
X129000000Y-157645000D01*
X129000000Y-157645000D02*
X145000000Y-157645000D01*
X145000000Y-143845000D02*
X129000000Y-143845000D01*
X145000000Y-143845000D02*
X145000000Y-157645000D01*
X146000000Y-142645000D02*
X146000000Y-143845000D01*
X146000000Y-143845000D02*
X145000000Y-143845000D01*
D10*
%TO.C,R5*%
X122650000Y-82750000D02*
X122650000Y-90250000D01*
X124500000Y-77850000D02*
X124500000Y-82650000D01*
X124500000Y-90350000D02*
X124500000Y-95150000D01*
X126250000Y-82650000D02*
X122750000Y-82650000D01*
X126250000Y-90350000D02*
X122750000Y-90350000D01*
X126350000Y-82750000D02*
X126350000Y-90250000D01*
D12*
%TO.C,D2*%
X134085000Y-81960000D02*
X130225000Y-81960000D01*
X134085000Y-81960000D02*
X134085000Y-85080000D01*
X139295000Y-82250000D02*
X139295000Y-82250000D01*
X139295000Y-82250000D02*
X134085000Y-82250000D01*
X134085000Y-82250000D02*
X139295000Y-82250000D01*
X134085000Y-82250000D02*
X134085000Y-82250000D01*
X139295000Y-84790000D02*
X139295000Y-84790000D01*
X139295000Y-84790000D02*
X134085000Y-84790000D01*
X134085000Y-84790000D02*
X139295000Y-84790000D01*
X134085000Y-84790000D02*
X134085000Y-84790000D01*
X134085000Y-85080000D02*
X130225000Y-85080000D01*
X134085000Y-85080000D02*
X134085000Y-85480000D01*
X132965000Y-85080000D02*
X134085000Y-85080000D01*
X134085000Y-85480000D02*
X132965000Y-85480000D01*
X132965000Y-85480000D02*
X132965000Y-85080000D01*
X130225000Y-85080000D02*
G75*
G02*
X130225000Y-81960000I0J1560000D01*
G01*
%TD*%
M02*
