%TF.GenerationSoftware,KiCad,Pcbnew,8.0.4*%
%TF.CreationDate,2024-11-11T12:11:55-05:00*%
%TF.ProjectId,HC-SR04sensor,48432d53-5230-4347-9365-6e736f722e6b,rev?*%
%TF.SameCoordinates,Original*%
%TF.FileFunction,Drillmap*%
%TF.FilePolarity,Positive*%
%FSLAX45Y45*%
G04 Gerber Fmt 4.5, Leading zero omitted, Abs format (unit mm)*
G04 Created by KiCad (PCBNEW 8.0.4) date 2024-11-11 12:11:55*
%MOMM*%
%LPD*%
G01*
G04 APERTURE LIST*
%ADD10C,0.050000*%
%ADD11C,0.200000*%
%ADD12C,0.100000*%
%ADD13C,0.102000*%
G04 APERTURE END LIST*
D10*
X9950000Y-6450000D02*
X14750000Y-6450000D01*
X14750000Y-16100000D01*
X9950000Y-16100000D01*
X9950000Y-6450000D01*
D11*
D12*
X11292500Y-8130000D02*
X11382500Y-8220000D01*
X11382500Y-8130000D02*
X11292500Y-8220000D01*
X11292500Y-8384000D02*
X11382500Y-8474000D01*
X11382500Y-8384000D02*
X11292500Y-8474000D01*
X13992500Y-8180000D02*
X14082500Y-8270000D01*
X14082500Y-8180000D02*
X13992500Y-8270000D01*
X13992500Y-8434000D02*
X14082500Y-8524000D01*
X14082500Y-8434000D02*
X13992500Y-8524000D01*
X11400000Y-9150000D02*
G75*
G02*
X11300000Y-9150000I-50000J0D01*
G01*
X11300000Y-9150000D02*
G75*
G02*
X11400000Y-9150000I50000J0D01*
G01*
X11400000Y-11150000D02*
G75*
G02*
X11300000Y-11150000I-50000J0D01*
G01*
X11300000Y-11150000D02*
G75*
G02*
X11400000Y-11150000I50000J0D01*
G01*
X11400000Y-12200000D02*
G75*
G02*
X11300000Y-12200000I-50000J0D01*
G01*
X11300000Y-12200000D02*
G75*
G02*
X11400000Y-12200000I50000J0D01*
G01*
X11992000Y-6750000D02*
G75*
G02*
X11892000Y-6750000I-50000J0D01*
G01*
X11892000Y-6750000D02*
G75*
G02*
X11992000Y-6750000I50000J0D01*
G01*
X12246000Y-6750000D02*
G75*
G02*
X12146000Y-6750000I-50000J0D01*
G01*
X12146000Y-6750000D02*
G75*
G02*
X12246000Y-6750000I50000J0D01*
G01*
X12500000Y-6750000D02*
G75*
G02*
X12400000Y-6750000I-50000J0D01*
G01*
X12400000Y-6750000D02*
G75*
G02*
X12500000Y-6750000I50000J0D01*
G01*
X12500000Y-7650000D02*
G75*
G02*
X12400000Y-7650000I-50000J0D01*
G01*
X12400000Y-7650000D02*
G75*
G02*
X12500000Y-7650000I50000J0D01*
G01*
X12500000Y-9650000D02*
G75*
G02*
X12400000Y-9650000I-50000J0D01*
G01*
X12400000Y-9650000D02*
G75*
G02*
X12500000Y-9650000I50000J0D01*
G01*
X12500000Y-10500000D02*
G75*
G02*
X12400000Y-10500000I-50000J0D01*
G01*
X12400000Y-10500000D02*
G75*
G02*
X12500000Y-10500000I50000J0D01*
G01*
X12500000Y-11200000D02*
G75*
G02*
X12400000Y-11200000I-50000J0D01*
G01*
X12400000Y-11200000D02*
G75*
G02*
X12500000Y-11200000I50000J0D01*
G01*
X12500000Y-13200000D02*
G75*
G02*
X12400000Y-13200000I-50000J0D01*
G01*
X12400000Y-13200000D02*
G75*
G02*
X12500000Y-13200000I50000J0D01*
G01*
X14100000Y-9100000D02*
G75*
G02*
X14000000Y-9100000I-50000J0D01*
G01*
X14000000Y-9100000D02*
G75*
G02*
X14100000Y-9100000I50000J0D01*
G01*
X14100000Y-11100000D02*
G75*
G02*
X14000000Y-11100000I-50000J0D01*
G01*
X14000000Y-11100000D02*
G75*
G02*
X14100000Y-11100000I50000J0D01*
G01*
X14100000Y-12200000D02*
G75*
G02*
X14000000Y-12200000I-50000J0D01*
G01*
X14000000Y-12200000D02*
G75*
G02*
X14100000Y-12200000I50000J0D01*
G01*
D13*
X11969000Y-13786500D02*
X11969000Y-13888500D01*
X11918000Y-13837500D02*
X12020000Y-13837500D01*
X12223000Y-13786500D02*
X12223000Y-13888500D01*
X12172000Y-13837500D02*
X12274000Y-13837500D01*
X12477000Y-13786500D02*
X12477000Y-13888500D01*
X12426000Y-13837500D02*
X12528000Y-13837500D01*
X12731000Y-13786500D02*
X12731000Y-13888500D01*
X12680000Y-13837500D02*
X12782000Y-13837500D01*
D11*
X10208277Y-16413984D02*
X10208277Y-16213984D01*
X10208277Y-16213984D02*
X10255896Y-16213984D01*
X10255896Y-16213984D02*
X10284467Y-16223508D01*
X10284467Y-16223508D02*
X10303515Y-16242555D01*
X10303515Y-16242555D02*
X10313039Y-16261603D01*
X10313039Y-16261603D02*
X10322563Y-16299698D01*
X10322563Y-16299698D02*
X10322563Y-16328269D01*
X10322563Y-16328269D02*
X10313039Y-16366365D01*
X10313039Y-16366365D02*
X10303515Y-16385412D01*
X10303515Y-16385412D02*
X10284467Y-16404460D01*
X10284467Y-16404460D02*
X10255896Y-16413984D01*
X10255896Y-16413984D02*
X10208277Y-16413984D01*
X10408277Y-16413984D02*
X10408277Y-16280650D01*
X10408277Y-16318746D02*
X10417801Y-16299698D01*
X10417801Y-16299698D02*
X10427324Y-16290174D01*
X10427324Y-16290174D02*
X10446372Y-16280650D01*
X10446372Y-16280650D02*
X10465420Y-16280650D01*
X10532086Y-16413984D02*
X10532086Y-16280650D01*
X10532086Y-16213984D02*
X10522563Y-16223508D01*
X10522563Y-16223508D02*
X10532086Y-16233031D01*
X10532086Y-16233031D02*
X10541610Y-16223508D01*
X10541610Y-16223508D02*
X10532086Y-16213984D01*
X10532086Y-16213984D02*
X10532086Y-16233031D01*
X10655896Y-16413984D02*
X10636848Y-16404460D01*
X10636848Y-16404460D02*
X10627324Y-16385412D01*
X10627324Y-16385412D02*
X10627324Y-16213984D01*
X10760658Y-16413984D02*
X10741610Y-16404460D01*
X10741610Y-16404460D02*
X10732086Y-16385412D01*
X10732086Y-16385412D02*
X10732086Y-16213984D01*
X10989229Y-16413984D02*
X10989229Y-16213984D01*
X10989229Y-16213984D02*
X11055896Y-16356841D01*
X11055896Y-16356841D02*
X11122563Y-16213984D01*
X11122563Y-16213984D02*
X11122563Y-16413984D01*
X11303515Y-16413984D02*
X11303515Y-16309222D01*
X11303515Y-16309222D02*
X11293991Y-16290174D01*
X11293991Y-16290174D02*
X11274943Y-16280650D01*
X11274943Y-16280650D02*
X11236848Y-16280650D01*
X11236848Y-16280650D02*
X11217801Y-16290174D01*
X11303515Y-16404460D02*
X11284467Y-16413984D01*
X11284467Y-16413984D02*
X11236848Y-16413984D01*
X11236848Y-16413984D02*
X11217801Y-16404460D01*
X11217801Y-16404460D02*
X11208277Y-16385412D01*
X11208277Y-16385412D02*
X11208277Y-16366365D01*
X11208277Y-16366365D02*
X11217801Y-16347317D01*
X11217801Y-16347317D02*
X11236848Y-16337793D01*
X11236848Y-16337793D02*
X11284467Y-16337793D01*
X11284467Y-16337793D02*
X11303515Y-16328269D01*
X11398753Y-16280650D02*
X11398753Y-16480650D01*
X11398753Y-16290174D02*
X11417801Y-16280650D01*
X11417801Y-16280650D02*
X11455896Y-16280650D01*
X11455896Y-16280650D02*
X11474943Y-16290174D01*
X11474943Y-16290174D02*
X11484467Y-16299698D01*
X11484467Y-16299698D02*
X11493991Y-16318746D01*
X11493991Y-16318746D02*
X11493991Y-16375888D01*
X11493991Y-16375888D02*
X11484467Y-16394936D01*
X11484467Y-16394936D02*
X11474943Y-16404460D01*
X11474943Y-16404460D02*
X11455896Y-16413984D01*
X11455896Y-16413984D02*
X11417801Y-16413984D01*
X11417801Y-16413984D02*
X11398753Y-16404460D01*
X11579705Y-16394936D02*
X11589229Y-16404460D01*
X11589229Y-16404460D02*
X11579705Y-16413984D01*
X11579705Y-16413984D02*
X11570182Y-16404460D01*
X11570182Y-16404460D02*
X11579705Y-16394936D01*
X11579705Y-16394936D02*
X11579705Y-16413984D01*
X11579705Y-16290174D02*
X11589229Y-16299698D01*
X11589229Y-16299698D02*
X11579705Y-16309222D01*
X11579705Y-16309222D02*
X11570182Y-16299698D01*
X11570182Y-16299698D02*
X11579705Y-16290174D01*
X11579705Y-16290174D02*
X11579705Y-16309222D01*
D12*
X9857500Y-16697500D02*
X9947500Y-16787500D01*
X9947500Y-16697500D02*
X9857500Y-16787500D01*
D11*
X10246372Y-16633984D02*
X10265420Y-16633984D01*
X10265420Y-16633984D02*
X10284467Y-16643508D01*
X10284467Y-16643508D02*
X10293991Y-16653031D01*
X10293991Y-16653031D02*
X10303515Y-16672079D01*
X10303515Y-16672079D02*
X10313039Y-16710174D01*
X10313039Y-16710174D02*
X10313039Y-16757793D01*
X10313039Y-16757793D02*
X10303515Y-16795889D01*
X10303515Y-16795889D02*
X10293991Y-16814936D01*
X10293991Y-16814936D02*
X10284467Y-16824460D01*
X10284467Y-16824460D02*
X10265420Y-16833984D01*
X10265420Y-16833984D02*
X10246372Y-16833984D01*
X10246372Y-16833984D02*
X10227324Y-16824460D01*
X10227324Y-16824460D02*
X10217801Y-16814936D01*
X10217801Y-16814936D02*
X10208277Y-16795889D01*
X10208277Y-16795889D02*
X10198753Y-16757793D01*
X10198753Y-16757793D02*
X10198753Y-16710174D01*
X10198753Y-16710174D02*
X10208277Y-16672079D01*
X10208277Y-16672079D02*
X10217801Y-16653031D01*
X10217801Y-16653031D02*
X10227324Y-16643508D01*
X10227324Y-16643508D02*
X10246372Y-16633984D01*
X10398753Y-16814936D02*
X10408277Y-16824460D01*
X10408277Y-16824460D02*
X10398753Y-16833984D01*
X10398753Y-16833984D02*
X10389229Y-16824460D01*
X10389229Y-16824460D02*
X10398753Y-16814936D01*
X10398753Y-16814936D02*
X10398753Y-16833984D01*
X10503515Y-16833984D02*
X10541610Y-16833984D01*
X10541610Y-16833984D02*
X10560658Y-16824460D01*
X10560658Y-16824460D02*
X10570182Y-16814936D01*
X10570182Y-16814936D02*
X10589229Y-16786365D01*
X10589229Y-16786365D02*
X10598753Y-16748269D01*
X10598753Y-16748269D02*
X10598753Y-16672079D01*
X10598753Y-16672079D02*
X10589229Y-16653031D01*
X10589229Y-16653031D02*
X10579705Y-16643508D01*
X10579705Y-16643508D02*
X10560658Y-16633984D01*
X10560658Y-16633984D02*
X10522563Y-16633984D01*
X10522563Y-16633984D02*
X10503515Y-16643508D01*
X10503515Y-16643508D02*
X10493991Y-16653031D01*
X10493991Y-16653031D02*
X10484467Y-16672079D01*
X10484467Y-16672079D02*
X10484467Y-16719698D01*
X10484467Y-16719698D02*
X10493991Y-16738746D01*
X10493991Y-16738746D02*
X10503515Y-16748269D01*
X10503515Y-16748269D02*
X10522563Y-16757793D01*
X10522563Y-16757793D02*
X10560658Y-16757793D01*
X10560658Y-16757793D02*
X10579705Y-16748269D01*
X10579705Y-16748269D02*
X10589229Y-16738746D01*
X10589229Y-16738746D02*
X10598753Y-16719698D01*
X10722563Y-16633984D02*
X10741610Y-16633984D01*
X10741610Y-16633984D02*
X10760658Y-16643508D01*
X10760658Y-16643508D02*
X10770182Y-16653031D01*
X10770182Y-16653031D02*
X10779705Y-16672079D01*
X10779705Y-16672079D02*
X10789229Y-16710174D01*
X10789229Y-16710174D02*
X10789229Y-16757793D01*
X10789229Y-16757793D02*
X10779705Y-16795889D01*
X10779705Y-16795889D02*
X10770182Y-16814936D01*
X10770182Y-16814936D02*
X10760658Y-16824460D01*
X10760658Y-16824460D02*
X10741610Y-16833984D01*
X10741610Y-16833984D02*
X10722563Y-16833984D01*
X10722563Y-16833984D02*
X10703515Y-16824460D01*
X10703515Y-16824460D02*
X10693991Y-16814936D01*
X10693991Y-16814936D02*
X10684467Y-16795889D01*
X10684467Y-16795889D02*
X10674944Y-16757793D01*
X10674944Y-16757793D02*
X10674944Y-16710174D01*
X10674944Y-16710174D02*
X10684467Y-16672079D01*
X10684467Y-16672079D02*
X10693991Y-16653031D01*
X10693991Y-16653031D02*
X10703515Y-16643508D01*
X10703515Y-16643508D02*
X10722563Y-16633984D01*
X10913039Y-16633984D02*
X10932086Y-16633984D01*
X10932086Y-16633984D02*
X10951134Y-16643508D01*
X10951134Y-16643508D02*
X10960658Y-16653031D01*
X10960658Y-16653031D02*
X10970182Y-16672079D01*
X10970182Y-16672079D02*
X10979705Y-16710174D01*
X10979705Y-16710174D02*
X10979705Y-16757793D01*
X10979705Y-16757793D02*
X10970182Y-16795889D01*
X10970182Y-16795889D02*
X10960658Y-16814936D01*
X10960658Y-16814936D02*
X10951134Y-16824460D01*
X10951134Y-16824460D02*
X10932086Y-16833984D01*
X10932086Y-16833984D02*
X10913039Y-16833984D01*
X10913039Y-16833984D02*
X10893991Y-16824460D01*
X10893991Y-16824460D02*
X10884467Y-16814936D01*
X10884467Y-16814936D02*
X10874944Y-16795889D01*
X10874944Y-16795889D02*
X10865420Y-16757793D01*
X10865420Y-16757793D02*
X10865420Y-16710174D01*
X10865420Y-16710174D02*
X10874944Y-16672079D01*
X10874944Y-16672079D02*
X10884467Y-16653031D01*
X10884467Y-16653031D02*
X10893991Y-16643508D01*
X10893991Y-16643508D02*
X10913039Y-16633984D01*
X11065420Y-16833984D02*
X11065420Y-16700650D01*
X11065420Y-16719698D02*
X11074944Y-16710174D01*
X11074944Y-16710174D02*
X11093991Y-16700650D01*
X11093991Y-16700650D02*
X11122563Y-16700650D01*
X11122563Y-16700650D02*
X11141610Y-16710174D01*
X11141610Y-16710174D02*
X11151134Y-16729222D01*
X11151134Y-16729222D02*
X11151134Y-16833984D01*
X11151134Y-16729222D02*
X11160658Y-16710174D01*
X11160658Y-16710174D02*
X11179705Y-16700650D01*
X11179705Y-16700650D02*
X11208277Y-16700650D01*
X11208277Y-16700650D02*
X11227324Y-16710174D01*
X11227324Y-16710174D02*
X11236848Y-16729222D01*
X11236848Y-16729222D02*
X11236848Y-16833984D01*
X11332086Y-16833984D02*
X11332086Y-16700650D01*
X11332086Y-16719698D02*
X11341610Y-16710174D01*
X11341610Y-16710174D02*
X11360658Y-16700650D01*
X11360658Y-16700650D02*
X11389229Y-16700650D01*
X11389229Y-16700650D02*
X11408277Y-16710174D01*
X11408277Y-16710174D02*
X11417801Y-16729222D01*
X11417801Y-16729222D02*
X11417801Y-16833984D01*
X11417801Y-16729222D02*
X11427324Y-16710174D01*
X11427324Y-16710174D02*
X11446372Y-16700650D01*
X11446372Y-16700650D02*
X11474943Y-16700650D01*
X11474943Y-16700650D02*
X11493991Y-16710174D01*
X11493991Y-16710174D02*
X11503515Y-16729222D01*
X11503515Y-16729222D02*
X11503515Y-16833984D01*
X11893991Y-16624460D02*
X11722563Y-16881603D01*
X12151134Y-16633984D02*
X12170182Y-16633984D01*
X12170182Y-16633984D02*
X12189229Y-16643508D01*
X12189229Y-16643508D02*
X12198753Y-16653031D01*
X12198753Y-16653031D02*
X12208277Y-16672079D01*
X12208277Y-16672079D02*
X12217801Y-16710174D01*
X12217801Y-16710174D02*
X12217801Y-16757793D01*
X12217801Y-16757793D02*
X12208277Y-16795889D01*
X12208277Y-16795889D02*
X12198753Y-16814936D01*
X12198753Y-16814936D02*
X12189229Y-16824460D01*
X12189229Y-16824460D02*
X12170182Y-16833984D01*
X12170182Y-16833984D02*
X12151134Y-16833984D01*
X12151134Y-16833984D02*
X12132086Y-16824460D01*
X12132086Y-16824460D02*
X12122563Y-16814936D01*
X12122563Y-16814936D02*
X12113039Y-16795889D01*
X12113039Y-16795889D02*
X12103515Y-16757793D01*
X12103515Y-16757793D02*
X12103515Y-16710174D01*
X12103515Y-16710174D02*
X12113039Y-16672079D01*
X12113039Y-16672079D02*
X12122563Y-16653031D01*
X12122563Y-16653031D02*
X12132086Y-16643508D01*
X12132086Y-16643508D02*
X12151134Y-16633984D01*
X12303515Y-16814936D02*
X12313039Y-16824460D01*
X12313039Y-16824460D02*
X12303515Y-16833984D01*
X12303515Y-16833984D02*
X12293991Y-16824460D01*
X12293991Y-16824460D02*
X12303515Y-16814936D01*
X12303515Y-16814936D02*
X12303515Y-16833984D01*
X12436848Y-16633984D02*
X12455896Y-16633984D01*
X12455896Y-16633984D02*
X12474944Y-16643508D01*
X12474944Y-16643508D02*
X12484467Y-16653031D01*
X12484467Y-16653031D02*
X12493991Y-16672079D01*
X12493991Y-16672079D02*
X12503515Y-16710174D01*
X12503515Y-16710174D02*
X12503515Y-16757793D01*
X12503515Y-16757793D02*
X12493991Y-16795889D01*
X12493991Y-16795889D02*
X12484467Y-16814936D01*
X12484467Y-16814936D02*
X12474944Y-16824460D01*
X12474944Y-16824460D02*
X12455896Y-16833984D01*
X12455896Y-16833984D02*
X12436848Y-16833984D01*
X12436848Y-16833984D02*
X12417801Y-16824460D01*
X12417801Y-16824460D02*
X12408277Y-16814936D01*
X12408277Y-16814936D02*
X12398753Y-16795889D01*
X12398753Y-16795889D02*
X12389229Y-16757793D01*
X12389229Y-16757793D02*
X12389229Y-16710174D01*
X12389229Y-16710174D02*
X12398753Y-16672079D01*
X12398753Y-16672079D02*
X12408277Y-16653031D01*
X12408277Y-16653031D02*
X12417801Y-16643508D01*
X12417801Y-16643508D02*
X12436848Y-16633984D01*
X12570182Y-16633984D02*
X12693991Y-16633984D01*
X12693991Y-16633984D02*
X12627325Y-16710174D01*
X12627325Y-16710174D02*
X12655896Y-16710174D01*
X12655896Y-16710174D02*
X12674944Y-16719698D01*
X12674944Y-16719698D02*
X12684467Y-16729222D01*
X12684467Y-16729222D02*
X12693991Y-16748269D01*
X12693991Y-16748269D02*
X12693991Y-16795889D01*
X12693991Y-16795889D02*
X12684467Y-16814936D01*
X12684467Y-16814936D02*
X12674944Y-16824460D01*
X12674944Y-16824460D02*
X12655896Y-16833984D01*
X12655896Y-16833984D02*
X12598753Y-16833984D01*
X12598753Y-16833984D02*
X12579706Y-16824460D01*
X12579706Y-16824460D02*
X12570182Y-16814936D01*
X12874944Y-16633984D02*
X12779706Y-16633984D01*
X12779706Y-16633984D02*
X12770182Y-16729222D01*
X12770182Y-16729222D02*
X12779706Y-16719698D01*
X12779706Y-16719698D02*
X12798753Y-16710174D01*
X12798753Y-16710174D02*
X12846372Y-16710174D01*
X12846372Y-16710174D02*
X12865420Y-16719698D01*
X12865420Y-16719698D02*
X12874944Y-16729222D01*
X12874944Y-16729222D02*
X12884467Y-16748269D01*
X12884467Y-16748269D02*
X12884467Y-16795889D01*
X12884467Y-16795889D02*
X12874944Y-16814936D01*
X12874944Y-16814936D02*
X12865420Y-16824460D01*
X12865420Y-16824460D02*
X12846372Y-16833984D01*
X12846372Y-16833984D02*
X12798753Y-16833984D01*
X12798753Y-16833984D02*
X12779706Y-16824460D01*
X12779706Y-16824460D02*
X12770182Y-16814936D01*
X13055896Y-16700650D02*
X13055896Y-16833984D01*
X13008277Y-16624460D02*
X12960658Y-16767317D01*
X12960658Y-16767317D02*
X13084467Y-16767317D01*
X13151134Y-16633984D02*
X13151134Y-16672079D01*
X13227325Y-16633984D02*
X13227325Y-16672079D01*
X13522563Y-16910174D02*
X13513039Y-16900650D01*
X13513039Y-16900650D02*
X13493991Y-16872079D01*
X13493991Y-16872079D02*
X13484468Y-16853031D01*
X13484468Y-16853031D02*
X13474944Y-16824460D01*
X13474944Y-16824460D02*
X13465420Y-16776841D01*
X13465420Y-16776841D02*
X13465420Y-16738746D01*
X13465420Y-16738746D02*
X13474944Y-16691127D01*
X13474944Y-16691127D02*
X13484468Y-16662555D01*
X13484468Y-16662555D02*
X13493991Y-16643508D01*
X13493991Y-16643508D02*
X13513039Y-16614936D01*
X13513039Y-16614936D02*
X13522563Y-16605412D01*
X13684468Y-16700650D02*
X13684468Y-16833984D01*
X13636848Y-16624460D02*
X13589229Y-16767317D01*
X13589229Y-16767317D02*
X13713039Y-16767317D01*
X13941610Y-16833984D02*
X13941610Y-16633984D01*
X14027325Y-16833984D02*
X14027325Y-16729222D01*
X14027325Y-16729222D02*
X14017801Y-16710174D01*
X14017801Y-16710174D02*
X13998753Y-16700650D01*
X13998753Y-16700650D02*
X13970182Y-16700650D01*
X13970182Y-16700650D02*
X13951134Y-16710174D01*
X13951134Y-16710174D02*
X13941610Y-16719698D01*
X14151134Y-16833984D02*
X14132087Y-16824460D01*
X14132087Y-16824460D02*
X14122563Y-16814936D01*
X14122563Y-16814936D02*
X14113039Y-16795889D01*
X14113039Y-16795889D02*
X14113039Y-16738746D01*
X14113039Y-16738746D02*
X14122563Y-16719698D01*
X14122563Y-16719698D02*
X14132087Y-16710174D01*
X14132087Y-16710174D02*
X14151134Y-16700650D01*
X14151134Y-16700650D02*
X14179706Y-16700650D01*
X14179706Y-16700650D02*
X14198753Y-16710174D01*
X14198753Y-16710174D02*
X14208277Y-16719698D01*
X14208277Y-16719698D02*
X14217801Y-16738746D01*
X14217801Y-16738746D02*
X14217801Y-16795889D01*
X14217801Y-16795889D02*
X14208277Y-16814936D01*
X14208277Y-16814936D02*
X14198753Y-16824460D01*
X14198753Y-16824460D02*
X14179706Y-16833984D01*
X14179706Y-16833984D02*
X14151134Y-16833984D01*
X14332087Y-16833984D02*
X14313039Y-16824460D01*
X14313039Y-16824460D02*
X14303515Y-16805412D01*
X14303515Y-16805412D02*
X14303515Y-16633984D01*
X14484468Y-16824460D02*
X14465420Y-16833984D01*
X14465420Y-16833984D02*
X14427325Y-16833984D01*
X14427325Y-16833984D02*
X14408277Y-16824460D01*
X14408277Y-16824460D02*
X14398753Y-16805412D01*
X14398753Y-16805412D02*
X14398753Y-16729222D01*
X14398753Y-16729222D02*
X14408277Y-16710174D01*
X14408277Y-16710174D02*
X14427325Y-16700650D01*
X14427325Y-16700650D02*
X14465420Y-16700650D01*
X14465420Y-16700650D02*
X14484468Y-16710174D01*
X14484468Y-16710174D02*
X14493991Y-16729222D01*
X14493991Y-16729222D02*
X14493991Y-16748269D01*
X14493991Y-16748269D02*
X14398753Y-16767317D01*
X14570182Y-16824460D02*
X14589230Y-16833984D01*
X14589230Y-16833984D02*
X14627325Y-16833984D01*
X14627325Y-16833984D02*
X14646372Y-16824460D01*
X14646372Y-16824460D02*
X14655896Y-16805412D01*
X14655896Y-16805412D02*
X14655896Y-16795889D01*
X14655896Y-16795889D02*
X14646372Y-16776841D01*
X14646372Y-16776841D02*
X14627325Y-16767317D01*
X14627325Y-16767317D02*
X14598753Y-16767317D01*
X14598753Y-16767317D02*
X14579706Y-16757793D01*
X14579706Y-16757793D02*
X14570182Y-16738746D01*
X14570182Y-16738746D02*
X14570182Y-16729222D01*
X14570182Y-16729222D02*
X14579706Y-16710174D01*
X14579706Y-16710174D02*
X14598753Y-16700650D01*
X14598753Y-16700650D02*
X14627325Y-16700650D01*
X14627325Y-16700650D02*
X14646372Y-16710174D01*
X14722563Y-16910174D02*
X14732087Y-16900650D01*
X14732087Y-16900650D02*
X14751134Y-16872079D01*
X14751134Y-16872079D02*
X14760658Y-16853031D01*
X14760658Y-16853031D02*
X14770182Y-16824460D01*
X14770182Y-16824460D02*
X14779706Y-16776841D01*
X14779706Y-16776841D02*
X14779706Y-16738746D01*
X14779706Y-16738746D02*
X14770182Y-16691127D01*
X14770182Y-16691127D02*
X14760658Y-16662555D01*
X14760658Y-16662555D02*
X14751134Y-16643508D01*
X14751134Y-16643508D02*
X14732087Y-16614936D01*
X14732087Y-16614936D02*
X14722563Y-16605412D01*
D12*
X9947500Y-17006500D02*
G75*
G02*
X9847500Y-17006500I-50000J0D01*
G01*
X9847500Y-17006500D02*
G75*
G02*
X9947500Y-17006500I50000J0D01*
G01*
D11*
X10313039Y-17097984D02*
X10198753Y-17097984D01*
X10255896Y-17097984D02*
X10255896Y-16897984D01*
X10255896Y-16897984D02*
X10236848Y-16926555D01*
X10236848Y-16926555D02*
X10217801Y-16945603D01*
X10217801Y-16945603D02*
X10198753Y-16955127D01*
X10398753Y-17078936D02*
X10408277Y-17088460D01*
X10408277Y-17088460D02*
X10398753Y-17097984D01*
X10398753Y-17097984D02*
X10389229Y-17088460D01*
X10389229Y-17088460D02*
X10398753Y-17078936D01*
X10398753Y-17078936D02*
X10398753Y-17097984D01*
X10532086Y-16897984D02*
X10551134Y-16897984D01*
X10551134Y-16897984D02*
X10570182Y-16907508D01*
X10570182Y-16907508D02*
X10579705Y-16917031D01*
X10579705Y-16917031D02*
X10589229Y-16936079D01*
X10589229Y-16936079D02*
X10598753Y-16974174D01*
X10598753Y-16974174D02*
X10598753Y-17021793D01*
X10598753Y-17021793D02*
X10589229Y-17059889D01*
X10589229Y-17059889D02*
X10579705Y-17078936D01*
X10579705Y-17078936D02*
X10570182Y-17088460D01*
X10570182Y-17088460D02*
X10551134Y-17097984D01*
X10551134Y-17097984D02*
X10532086Y-17097984D01*
X10532086Y-17097984D02*
X10513039Y-17088460D01*
X10513039Y-17088460D02*
X10503515Y-17078936D01*
X10503515Y-17078936D02*
X10493991Y-17059889D01*
X10493991Y-17059889D02*
X10484467Y-17021793D01*
X10484467Y-17021793D02*
X10484467Y-16974174D01*
X10484467Y-16974174D02*
X10493991Y-16936079D01*
X10493991Y-16936079D02*
X10503515Y-16917031D01*
X10503515Y-16917031D02*
X10513039Y-16907508D01*
X10513039Y-16907508D02*
X10532086Y-16897984D01*
X10722563Y-16897984D02*
X10741610Y-16897984D01*
X10741610Y-16897984D02*
X10760658Y-16907508D01*
X10760658Y-16907508D02*
X10770182Y-16917031D01*
X10770182Y-16917031D02*
X10779705Y-16936079D01*
X10779705Y-16936079D02*
X10789229Y-16974174D01*
X10789229Y-16974174D02*
X10789229Y-17021793D01*
X10789229Y-17021793D02*
X10779705Y-17059889D01*
X10779705Y-17059889D02*
X10770182Y-17078936D01*
X10770182Y-17078936D02*
X10760658Y-17088460D01*
X10760658Y-17088460D02*
X10741610Y-17097984D01*
X10741610Y-17097984D02*
X10722563Y-17097984D01*
X10722563Y-17097984D02*
X10703515Y-17088460D01*
X10703515Y-17088460D02*
X10693991Y-17078936D01*
X10693991Y-17078936D02*
X10684467Y-17059889D01*
X10684467Y-17059889D02*
X10674944Y-17021793D01*
X10674944Y-17021793D02*
X10674944Y-16974174D01*
X10674944Y-16974174D02*
X10684467Y-16936079D01*
X10684467Y-16936079D02*
X10693991Y-16917031D01*
X10693991Y-16917031D02*
X10703515Y-16907508D01*
X10703515Y-16907508D02*
X10722563Y-16897984D01*
X10913039Y-16897984D02*
X10932086Y-16897984D01*
X10932086Y-16897984D02*
X10951134Y-16907508D01*
X10951134Y-16907508D02*
X10960658Y-16917031D01*
X10960658Y-16917031D02*
X10970182Y-16936079D01*
X10970182Y-16936079D02*
X10979705Y-16974174D01*
X10979705Y-16974174D02*
X10979705Y-17021793D01*
X10979705Y-17021793D02*
X10970182Y-17059889D01*
X10970182Y-17059889D02*
X10960658Y-17078936D01*
X10960658Y-17078936D02*
X10951134Y-17088460D01*
X10951134Y-17088460D02*
X10932086Y-17097984D01*
X10932086Y-17097984D02*
X10913039Y-17097984D01*
X10913039Y-17097984D02*
X10893991Y-17088460D01*
X10893991Y-17088460D02*
X10884467Y-17078936D01*
X10884467Y-17078936D02*
X10874944Y-17059889D01*
X10874944Y-17059889D02*
X10865420Y-17021793D01*
X10865420Y-17021793D02*
X10865420Y-16974174D01*
X10865420Y-16974174D02*
X10874944Y-16936079D01*
X10874944Y-16936079D02*
X10884467Y-16917031D01*
X10884467Y-16917031D02*
X10893991Y-16907508D01*
X10893991Y-16907508D02*
X10913039Y-16897984D01*
X11065420Y-17097984D02*
X11065420Y-16964650D01*
X11065420Y-16983698D02*
X11074944Y-16974174D01*
X11074944Y-16974174D02*
X11093991Y-16964650D01*
X11093991Y-16964650D02*
X11122563Y-16964650D01*
X11122563Y-16964650D02*
X11141610Y-16974174D01*
X11141610Y-16974174D02*
X11151134Y-16993222D01*
X11151134Y-16993222D02*
X11151134Y-17097984D01*
X11151134Y-16993222D02*
X11160658Y-16974174D01*
X11160658Y-16974174D02*
X11179705Y-16964650D01*
X11179705Y-16964650D02*
X11208277Y-16964650D01*
X11208277Y-16964650D02*
X11227324Y-16974174D01*
X11227324Y-16974174D02*
X11236848Y-16993222D01*
X11236848Y-16993222D02*
X11236848Y-17097984D01*
X11332086Y-17097984D02*
X11332086Y-16964650D01*
X11332086Y-16983698D02*
X11341610Y-16974174D01*
X11341610Y-16974174D02*
X11360658Y-16964650D01*
X11360658Y-16964650D02*
X11389229Y-16964650D01*
X11389229Y-16964650D02*
X11408277Y-16974174D01*
X11408277Y-16974174D02*
X11417801Y-16993222D01*
X11417801Y-16993222D02*
X11417801Y-17097984D01*
X11417801Y-16993222D02*
X11427324Y-16974174D01*
X11427324Y-16974174D02*
X11446372Y-16964650D01*
X11446372Y-16964650D02*
X11474943Y-16964650D01*
X11474943Y-16964650D02*
X11493991Y-16974174D01*
X11493991Y-16974174D02*
X11503515Y-16993222D01*
X11503515Y-16993222D02*
X11503515Y-17097984D01*
X11893991Y-16888460D02*
X11722563Y-17145603D01*
X12151134Y-16897984D02*
X12170182Y-16897984D01*
X12170182Y-16897984D02*
X12189229Y-16907508D01*
X12189229Y-16907508D02*
X12198753Y-16917031D01*
X12198753Y-16917031D02*
X12208277Y-16936079D01*
X12208277Y-16936079D02*
X12217801Y-16974174D01*
X12217801Y-16974174D02*
X12217801Y-17021793D01*
X12217801Y-17021793D02*
X12208277Y-17059889D01*
X12208277Y-17059889D02*
X12198753Y-17078936D01*
X12198753Y-17078936D02*
X12189229Y-17088460D01*
X12189229Y-17088460D02*
X12170182Y-17097984D01*
X12170182Y-17097984D02*
X12151134Y-17097984D01*
X12151134Y-17097984D02*
X12132086Y-17088460D01*
X12132086Y-17088460D02*
X12122563Y-17078936D01*
X12122563Y-17078936D02*
X12113039Y-17059889D01*
X12113039Y-17059889D02*
X12103515Y-17021793D01*
X12103515Y-17021793D02*
X12103515Y-16974174D01*
X12103515Y-16974174D02*
X12113039Y-16936079D01*
X12113039Y-16936079D02*
X12122563Y-16917031D01*
X12122563Y-16917031D02*
X12132086Y-16907508D01*
X12132086Y-16907508D02*
X12151134Y-16897984D01*
X12303515Y-17078936D02*
X12313039Y-17088460D01*
X12313039Y-17088460D02*
X12303515Y-17097984D01*
X12303515Y-17097984D02*
X12293991Y-17088460D01*
X12293991Y-17088460D02*
X12303515Y-17078936D01*
X12303515Y-17078936D02*
X12303515Y-17097984D01*
X12436848Y-16897984D02*
X12455896Y-16897984D01*
X12455896Y-16897984D02*
X12474944Y-16907508D01*
X12474944Y-16907508D02*
X12484467Y-16917031D01*
X12484467Y-16917031D02*
X12493991Y-16936079D01*
X12493991Y-16936079D02*
X12503515Y-16974174D01*
X12503515Y-16974174D02*
X12503515Y-17021793D01*
X12503515Y-17021793D02*
X12493991Y-17059889D01*
X12493991Y-17059889D02*
X12484467Y-17078936D01*
X12484467Y-17078936D02*
X12474944Y-17088460D01*
X12474944Y-17088460D02*
X12455896Y-17097984D01*
X12455896Y-17097984D02*
X12436848Y-17097984D01*
X12436848Y-17097984D02*
X12417801Y-17088460D01*
X12417801Y-17088460D02*
X12408277Y-17078936D01*
X12408277Y-17078936D02*
X12398753Y-17059889D01*
X12398753Y-17059889D02*
X12389229Y-17021793D01*
X12389229Y-17021793D02*
X12389229Y-16974174D01*
X12389229Y-16974174D02*
X12398753Y-16936079D01*
X12398753Y-16936079D02*
X12408277Y-16917031D01*
X12408277Y-16917031D02*
X12417801Y-16907508D01*
X12417801Y-16907508D02*
X12436848Y-16897984D01*
X12570182Y-16897984D02*
X12693991Y-16897984D01*
X12693991Y-16897984D02*
X12627325Y-16974174D01*
X12627325Y-16974174D02*
X12655896Y-16974174D01*
X12655896Y-16974174D02*
X12674944Y-16983698D01*
X12674944Y-16983698D02*
X12684467Y-16993222D01*
X12684467Y-16993222D02*
X12693991Y-17012270D01*
X12693991Y-17012270D02*
X12693991Y-17059889D01*
X12693991Y-17059889D02*
X12684467Y-17078936D01*
X12684467Y-17078936D02*
X12674944Y-17088460D01*
X12674944Y-17088460D02*
X12655896Y-17097984D01*
X12655896Y-17097984D02*
X12598753Y-17097984D01*
X12598753Y-17097984D02*
X12579706Y-17088460D01*
X12579706Y-17088460D02*
X12570182Y-17078936D01*
X12789229Y-17097984D02*
X12827325Y-17097984D01*
X12827325Y-17097984D02*
X12846372Y-17088460D01*
X12846372Y-17088460D02*
X12855896Y-17078936D01*
X12855896Y-17078936D02*
X12874944Y-17050365D01*
X12874944Y-17050365D02*
X12884467Y-17012270D01*
X12884467Y-17012270D02*
X12884467Y-16936079D01*
X12884467Y-16936079D02*
X12874944Y-16917031D01*
X12874944Y-16917031D02*
X12865420Y-16907508D01*
X12865420Y-16907508D02*
X12846372Y-16897984D01*
X12846372Y-16897984D02*
X12808277Y-16897984D01*
X12808277Y-16897984D02*
X12789229Y-16907508D01*
X12789229Y-16907508D02*
X12779706Y-16917031D01*
X12779706Y-16917031D02*
X12770182Y-16936079D01*
X12770182Y-16936079D02*
X12770182Y-16983698D01*
X12770182Y-16983698D02*
X12779706Y-17002746D01*
X12779706Y-17002746D02*
X12789229Y-17012270D01*
X12789229Y-17012270D02*
X12808277Y-17021793D01*
X12808277Y-17021793D02*
X12846372Y-17021793D01*
X12846372Y-17021793D02*
X12865420Y-17012270D01*
X12865420Y-17012270D02*
X12874944Y-17002746D01*
X12874944Y-17002746D02*
X12884467Y-16983698D01*
X13055896Y-16964650D02*
X13055896Y-17097984D01*
X13008277Y-16888460D02*
X12960658Y-17031317D01*
X12960658Y-17031317D02*
X13084467Y-17031317D01*
X13151134Y-16897984D02*
X13151134Y-16936079D01*
X13227325Y-16897984D02*
X13227325Y-16936079D01*
X13522563Y-17174174D02*
X13513039Y-17164650D01*
X13513039Y-17164650D02*
X13493991Y-17136079D01*
X13493991Y-17136079D02*
X13484468Y-17117031D01*
X13484468Y-17117031D02*
X13474944Y-17088460D01*
X13474944Y-17088460D02*
X13465420Y-17040841D01*
X13465420Y-17040841D02*
X13465420Y-17002746D01*
X13465420Y-17002746D02*
X13474944Y-16955127D01*
X13474944Y-16955127D02*
X13484468Y-16926555D01*
X13484468Y-16926555D02*
X13493991Y-16907508D01*
X13493991Y-16907508D02*
X13513039Y-16878936D01*
X13513039Y-16878936D02*
X13522563Y-16869412D01*
X13703515Y-17097984D02*
X13589229Y-17097984D01*
X13646372Y-17097984D02*
X13646372Y-16897984D01*
X13646372Y-16897984D02*
X13627325Y-16926555D01*
X13627325Y-16926555D02*
X13608277Y-16945603D01*
X13608277Y-16945603D02*
X13589229Y-16955127D01*
X13874944Y-16964650D02*
X13874944Y-17097984D01*
X13827325Y-16888460D02*
X13779706Y-17031317D01*
X13779706Y-17031317D02*
X13903515Y-17031317D01*
X14132087Y-17097984D02*
X14132087Y-16897984D01*
X14217801Y-17097984D02*
X14217801Y-16993222D01*
X14217801Y-16993222D02*
X14208277Y-16974174D01*
X14208277Y-16974174D02*
X14189230Y-16964650D01*
X14189230Y-16964650D02*
X14160658Y-16964650D01*
X14160658Y-16964650D02*
X14141610Y-16974174D01*
X14141610Y-16974174D02*
X14132087Y-16983698D01*
X14341610Y-17097984D02*
X14322563Y-17088460D01*
X14322563Y-17088460D02*
X14313039Y-17078936D01*
X14313039Y-17078936D02*
X14303515Y-17059889D01*
X14303515Y-17059889D02*
X14303515Y-17002746D01*
X14303515Y-17002746D02*
X14313039Y-16983698D01*
X14313039Y-16983698D02*
X14322563Y-16974174D01*
X14322563Y-16974174D02*
X14341610Y-16964650D01*
X14341610Y-16964650D02*
X14370182Y-16964650D01*
X14370182Y-16964650D02*
X14389230Y-16974174D01*
X14389230Y-16974174D02*
X14398753Y-16983698D01*
X14398753Y-16983698D02*
X14408277Y-17002746D01*
X14408277Y-17002746D02*
X14408277Y-17059889D01*
X14408277Y-17059889D02*
X14398753Y-17078936D01*
X14398753Y-17078936D02*
X14389230Y-17088460D01*
X14389230Y-17088460D02*
X14370182Y-17097984D01*
X14370182Y-17097984D02*
X14341610Y-17097984D01*
X14522563Y-17097984D02*
X14503515Y-17088460D01*
X14503515Y-17088460D02*
X14493991Y-17069412D01*
X14493991Y-17069412D02*
X14493991Y-16897984D01*
X14674944Y-17088460D02*
X14655896Y-17097984D01*
X14655896Y-17097984D02*
X14617801Y-17097984D01*
X14617801Y-17097984D02*
X14598753Y-17088460D01*
X14598753Y-17088460D02*
X14589230Y-17069412D01*
X14589230Y-17069412D02*
X14589230Y-16993222D01*
X14589230Y-16993222D02*
X14598753Y-16974174D01*
X14598753Y-16974174D02*
X14617801Y-16964650D01*
X14617801Y-16964650D02*
X14655896Y-16964650D01*
X14655896Y-16964650D02*
X14674944Y-16974174D01*
X14674944Y-16974174D02*
X14684468Y-16993222D01*
X14684468Y-16993222D02*
X14684468Y-17012270D01*
X14684468Y-17012270D02*
X14589230Y-17031317D01*
X14760658Y-17088460D02*
X14779706Y-17097984D01*
X14779706Y-17097984D02*
X14817801Y-17097984D01*
X14817801Y-17097984D02*
X14836849Y-17088460D01*
X14836849Y-17088460D02*
X14846372Y-17069412D01*
X14846372Y-17069412D02*
X14846372Y-17059889D01*
X14846372Y-17059889D02*
X14836849Y-17040841D01*
X14836849Y-17040841D02*
X14817801Y-17031317D01*
X14817801Y-17031317D02*
X14789230Y-17031317D01*
X14789230Y-17031317D02*
X14770182Y-17021793D01*
X14770182Y-17021793D02*
X14760658Y-17002746D01*
X14760658Y-17002746D02*
X14760658Y-16993222D01*
X14760658Y-16993222D02*
X14770182Y-16974174D01*
X14770182Y-16974174D02*
X14789230Y-16964650D01*
X14789230Y-16964650D02*
X14817801Y-16964650D01*
X14817801Y-16964650D02*
X14836849Y-16974174D01*
X14913039Y-17174174D02*
X14922563Y-17164650D01*
X14922563Y-17164650D02*
X14941611Y-17136079D01*
X14941611Y-17136079D02*
X14951134Y-17117031D01*
X14951134Y-17117031D02*
X14960658Y-17088460D01*
X14960658Y-17088460D02*
X14970182Y-17040841D01*
X14970182Y-17040841D02*
X14970182Y-17002746D01*
X14970182Y-17002746D02*
X14960658Y-16955127D01*
X14960658Y-16955127D02*
X14951134Y-16926555D01*
X14951134Y-16926555D02*
X14941611Y-16907508D01*
X14941611Y-16907508D02*
X14922563Y-16878936D01*
X14922563Y-16878936D02*
X14913039Y-16869412D01*
D13*
X9896500Y-17219500D02*
X9896500Y-17321500D01*
X9845500Y-17270500D02*
X9947500Y-17270500D01*
D11*
X10313039Y-17361984D02*
X10198753Y-17361984D01*
X10255896Y-17361984D02*
X10255896Y-17161984D01*
X10255896Y-17161984D02*
X10236848Y-17190555D01*
X10236848Y-17190555D02*
X10217801Y-17209603D01*
X10217801Y-17209603D02*
X10198753Y-17219127D01*
X10398753Y-17342936D02*
X10408277Y-17352460D01*
X10408277Y-17352460D02*
X10398753Y-17361984D01*
X10398753Y-17361984D02*
X10389229Y-17352460D01*
X10389229Y-17352460D02*
X10398753Y-17342936D01*
X10398753Y-17342936D02*
X10398753Y-17361984D01*
X10532086Y-17161984D02*
X10551134Y-17161984D01*
X10551134Y-17161984D02*
X10570182Y-17171508D01*
X10570182Y-17171508D02*
X10579705Y-17181031D01*
X10579705Y-17181031D02*
X10589229Y-17200079D01*
X10589229Y-17200079D02*
X10598753Y-17238174D01*
X10598753Y-17238174D02*
X10598753Y-17285793D01*
X10598753Y-17285793D02*
X10589229Y-17323889D01*
X10589229Y-17323889D02*
X10579705Y-17342936D01*
X10579705Y-17342936D02*
X10570182Y-17352460D01*
X10570182Y-17352460D02*
X10551134Y-17361984D01*
X10551134Y-17361984D02*
X10532086Y-17361984D01*
X10532086Y-17361984D02*
X10513039Y-17352460D01*
X10513039Y-17352460D02*
X10503515Y-17342936D01*
X10503515Y-17342936D02*
X10493991Y-17323889D01*
X10493991Y-17323889D02*
X10484467Y-17285793D01*
X10484467Y-17285793D02*
X10484467Y-17238174D01*
X10484467Y-17238174D02*
X10493991Y-17200079D01*
X10493991Y-17200079D02*
X10503515Y-17181031D01*
X10503515Y-17181031D02*
X10513039Y-17171508D01*
X10513039Y-17171508D02*
X10532086Y-17161984D01*
X10674944Y-17181031D02*
X10684467Y-17171508D01*
X10684467Y-17171508D02*
X10703515Y-17161984D01*
X10703515Y-17161984D02*
X10751134Y-17161984D01*
X10751134Y-17161984D02*
X10770182Y-17171508D01*
X10770182Y-17171508D02*
X10779705Y-17181031D01*
X10779705Y-17181031D02*
X10789229Y-17200079D01*
X10789229Y-17200079D02*
X10789229Y-17219127D01*
X10789229Y-17219127D02*
X10779705Y-17247698D01*
X10779705Y-17247698D02*
X10665420Y-17361984D01*
X10665420Y-17361984D02*
X10789229Y-17361984D01*
X10913039Y-17161984D02*
X10932086Y-17161984D01*
X10932086Y-17161984D02*
X10951134Y-17171508D01*
X10951134Y-17171508D02*
X10960658Y-17181031D01*
X10960658Y-17181031D02*
X10970182Y-17200079D01*
X10970182Y-17200079D02*
X10979705Y-17238174D01*
X10979705Y-17238174D02*
X10979705Y-17285793D01*
X10979705Y-17285793D02*
X10970182Y-17323889D01*
X10970182Y-17323889D02*
X10960658Y-17342936D01*
X10960658Y-17342936D02*
X10951134Y-17352460D01*
X10951134Y-17352460D02*
X10932086Y-17361984D01*
X10932086Y-17361984D02*
X10913039Y-17361984D01*
X10913039Y-17361984D02*
X10893991Y-17352460D01*
X10893991Y-17352460D02*
X10884467Y-17342936D01*
X10884467Y-17342936D02*
X10874944Y-17323889D01*
X10874944Y-17323889D02*
X10865420Y-17285793D01*
X10865420Y-17285793D02*
X10865420Y-17238174D01*
X10865420Y-17238174D02*
X10874944Y-17200079D01*
X10874944Y-17200079D02*
X10884467Y-17181031D01*
X10884467Y-17181031D02*
X10893991Y-17171508D01*
X10893991Y-17171508D02*
X10913039Y-17161984D01*
X11065420Y-17361984D02*
X11065420Y-17228650D01*
X11065420Y-17247698D02*
X11074944Y-17238174D01*
X11074944Y-17238174D02*
X11093991Y-17228650D01*
X11093991Y-17228650D02*
X11122563Y-17228650D01*
X11122563Y-17228650D02*
X11141610Y-17238174D01*
X11141610Y-17238174D02*
X11151134Y-17257222D01*
X11151134Y-17257222D02*
X11151134Y-17361984D01*
X11151134Y-17257222D02*
X11160658Y-17238174D01*
X11160658Y-17238174D02*
X11179705Y-17228650D01*
X11179705Y-17228650D02*
X11208277Y-17228650D01*
X11208277Y-17228650D02*
X11227324Y-17238174D01*
X11227324Y-17238174D02*
X11236848Y-17257222D01*
X11236848Y-17257222D02*
X11236848Y-17361984D01*
X11332086Y-17361984D02*
X11332086Y-17228650D01*
X11332086Y-17247698D02*
X11341610Y-17238174D01*
X11341610Y-17238174D02*
X11360658Y-17228650D01*
X11360658Y-17228650D02*
X11389229Y-17228650D01*
X11389229Y-17228650D02*
X11408277Y-17238174D01*
X11408277Y-17238174D02*
X11417801Y-17257222D01*
X11417801Y-17257222D02*
X11417801Y-17361984D01*
X11417801Y-17257222D02*
X11427324Y-17238174D01*
X11427324Y-17238174D02*
X11446372Y-17228650D01*
X11446372Y-17228650D02*
X11474943Y-17228650D01*
X11474943Y-17228650D02*
X11493991Y-17238174D01*
X11493991Y-17238174D02*
X11503515Y-17257222D01*
X11503515Y-17257222D02*
X11503515Y-17361984D01*
X11893991Y-17152460D02*
X11722563Y-17409603D01*
X12151134Y-17161984D02*
X12170182Y-17161984D01*
X12170182Y-17161984D02*
X12189229Y-17171508D01*
X12189229Y-17171508D02*
X12198753Y-17181031D01*
X12198753Y-17181031D02*
X12208277Y-17200079D01*
X12208277Y-17200079D02*
X12217801Y-17238174D01*
X12217801Y-17238174D02*
X12217801Y-17285793D01*
X12217801Y-17285793D02*
X12208277Y-17323889D01*
X12208277Y-17323889D02*
X12198753Y-17342936D01*
X12198753Y-17342936D02*
X12189229Y-17352460D01*
X12189229Y-17352460D02*
X12170182Y-17361984D01*
X12170182Y-17361984D02*
X12151134Y-17361984D01*
X12151134Y-17361984D02*
X12132086Y-17352460D01*
X12132086Y-17352460D02*
X12122563Y-17342936D01*
X12122563Y-17342936D02*
X12113039Y-17323889D01*
X12113039Y-17323889D02*
X12103515Y-17285793D01*
X12103515Y-17285793D02*
X12103515Y-17238174D01*
X12103515Y-17238174D02*
X12113039Y-17200079D01*
X12113039Y-17200079D02*
X12122563Y-17181031D01*
X12122563Y-17181031D02*
X12132086Y-17171508D01*
X12132086Y-17171508D02*
X12151134Y-17161984D01*
X12303515Y-17342936D02*
X12313039Y-17352460D01*
X12313039Y-17352460D02*
X12303515Y-17361984D01*
X12303515Y-17361984D02*
X12293991Y-17352460D01*
X12293991Y-17352460D02*
X12303515Y-17342936D01*
X12303515Y-17342936D02*
X12303515Y-17361984D01*
X12436848Y-17161984D02*
X12455896Y-17161984D01*
X12455896Y-17161984D02*
X12474944Y-17171508D01*
X12474944Y-17171508D02*
X12484467Y-17181031D01*
X12484467Y-17181031D02*
X12493991Y-17200079D01*
X12493991Y-17200079D02*
X12503515Y-17238174D01*
X12503515Y-17238174D02*
X12503515Y-17285793D01*
X12503515Y-17285793D02*
X12493991Y-17323889D01*
X12493991Y-17323889D02*
X12484467Y-17342936D01*
X12484467Y-17342936D02*
X12474944Y-17352460D01*
X12474944Y-17352460D02*
X12455896Y-17361984D01*
X12455896Y-17361984D02*
X12436848Y-17361984D01*
X12436848Y-17361984D02*
X12417801Y-17352460D01*
X12417801Y-17352460D02*
X12408277Y-17342936D01*
X12408277Y-17342936D02*
X12398753Y-17323889D01*
X12398753Y-17323889D02*
X12389229Y-17285793D01*
X12389229Y-17285793D02*
X12389229Y-17238174D01*
X12389229Y-17238174D02*
X12398753Y-17200079D01*
X12398753Y-17200079D02*
X12408277Y-17181031D01*
X12408277Y-17181031D02*
X12417801Y-17171508D01*
X12417801Y-17171508D02*
X12436848Y-17161984D01*
X12674944Y-17228650D02*
X12674944Y-17361984D01*
X12627325Y-17152460D02*
X12579706Y-17295317D01*
X12579706Y-17295317D02*
X12703515Y-17295317D01*
X12817801Y-17161984D02*
X12836848Y-17161984D01*
X12836848Y-17161984D02*
X12855896Y-17171508D01*
X12855896Y-17171508D02*
X12865420Y-17181031D01*
X12865420Y-17181031D02*
X12874944Y-17200079D01*
X12874944Y-17200079D02*
X12884467Y-17238174D01*
X12884467Y-17238174D02*
X12884467Y-17285793D01*
X12884467Y-17285793D02*
X12874944Y-17323889D01*
X12874944Y-17323889D02*
X12865420Y-17342936D01*
X12865420Y-17342936D02*
X12855896Y-17352460D01*
X12855896Y-17352460D02*
X12836848Y-17361984D01*
X12836848Y-17361984D02*
X12817801Y-17361984D01*
X12817801Y-17361984D02*
X12798753Y-17352460D01*
X12798753Y-17352460D02*
X12789229Y-17342936D01*
X12789229Y-17342936D02*
X12779706Y-17323889D01*
X12779706Y-17323889D02*
X12770182Y-17285793D01*
X12770182Y-17285793D02*
X12770182Y-17238174D01*
X12770182Y-17238174D02*
X12779706Y-17200079D01*
X12779706Y-17200079D02*
X12789229Y-17181031D01*
X12789229Y-17181031D02*
X12798753Y-17171508D01*
X12798753Y-17171508D02*
X12817801Y-17161984D01*
X12960658Y-17181031D02*
X12970182Y-17171508D01*
X12970182Y-17171508D02*
X12989229Y-17161984D01*
X12989229Y-17161984D02*
X13036848Y-17161984D01*
X13036848Y-17161984D02*
X13055896Y-17171508D01*
X13055896Y-17171508D02*
X13065420Y-17181031D01*
X13065420Y-17181031D02*
X13074944Y-17200079D01*
X13074944Y-17200079D02*
X13074944Y-17219127D01*
X13074944Y-17219127D02*
X13065420Y-17247698D01*
X13065420Y-17247698D02*
X12951134Y-17361984D01*
X12951134Y-17361984D02*
X13074944Y-17361984D01*
X13151134Y-17161984D02*
X13151134Y-17200079D01*
X13227325Y-17161984D02*
X13227325Y-17200079D01*
X13522563Y-17438174D02*
X13513039Y-17428650D01*
X13513039Y-17428650D02*
X13493991Y-17400079D01*
X13493991Y-17400079D02*
X13484468Y-17381031D01*
X13484468Y-17381031D02*
X13474944Y-17352460D01*
X13474944Y-17352460D02*
X13465420Y-17304841D01*
X13465420Y-17304841D02*
X13465420Y-17266746D01*
X13465420Y-17266746D02*
X13474944Y-17219127D01*
X13474944Y-17219127D02*
X13484468Y-17190555D01*
X13484468Y-17190555D02*
X13493991Y-17171508D01*
X13493991Y-17171508D02*
X13513039Y-17142936D01*
X13513039Y-17142936D02*
X13522563Y-17133412D01*
X13684468Y-17228650D02*
X13684468Y-17361984D01*
X13636848Y-17152460D02*
X13589229Y-17295317D01*
X13589229Y-17295317D02*
X13713039Y-17295317D01*
X13941610Y-17361984D02*
X13941610Y-17161984D01*
X14027325Y-17361984D02*
X14027325Y-17257222D01*
X14027325Y-17257222D02*
X14017801Y-17238174D01*
X14017801Y-17238174D02*
X13998753Y-17228650D01*
X13998753Y-17228650D02*
X13970182Y-17228650D01*
X13970182Y-17228650D02*
X13951134Y-17238174D01*
X13951134Y-17238174D02*
X13941610Y-17247698D01*
X14151134Y-17361984D02*
X14132087Y-17352460D01*
X14132087Y-17352460D02*
X14122563Y-17342936D01*
X14122563Y-17342936D02*
X14113039Y-17323889D01*
X14113039Y-17323889D02*
X14113039Y-17266746D01*
X14113039Y-17266746D02*
X14122563Y-17247698D01*
X14122563Y-17247698D02*
X14132087Y-17238174D01*
X14132087Y-17238174D02*
X14151134Y-17228650D01*
X14151134Y-17228650D02*
X14179706Y-17228650D01*
X14179706Y-17228650D02*
X14198753Y-17238174D01*
X14198753Y-17238174D02*
X14208277Y-17247698D01*
X14208277Y-17247698D02*
X14217801Y-17266746D01*
X14217801Y-17266746D02*
X14217801Y-17323889D01*
X14217801Y-17323889D02*
X14208277Y-17342936D01*
X14208277Y-17342936D02*
X14198753Y-17352460D01*
X14198753Y-17352460D02*
X14179706Y-17361984D01*
X14179706Y-17361984D02*
X14151134Y-17361984D01*
X14332087Y-17361984D02*
X14313039Y-17352460D01*
X14313039Y-17352460D02*
X14303515Y-17333412D01*
X14303515Y-17333412D02*
X14303515Y-17161984D01*
X14484468Y-17352460D02*
X14465420Y-17361984D01*
X14465420Y-17361984D02*
X14427325Y-17361984D01*
X14427325Y-17361984D02*
X14408277Y-17352460D01*
X14408277Y-17352460D02*
X14398753Y-17333412D01*
X14398753Y-17333412D02*
X14398753Y-17257222D01*
X14398753Y-17257222D02*
X14408277Y-17238174D01*
X14408277Y-17238174D02*
X14427325Y-17228650D01*
X14427325Y-17228650D02*
X14465420Y-17228650D01*
X14465420Y-17228650D02*
X14484468Y-17238174D01*
X14484468Y-17238174D02*
X14493991Y-17257222D01*
X14493991Y-17257222D02*
X14493991Y-17276270D01*
X14493991Y-17276270D02*
X14398753Y-17295317D01*
X14570182Y-17352460D02*
X14589230Y-17361984D01*
X14589230Y-17361984D02*
X14627325Y-17361984D01*
X14627325Y-17361984D02*
X14646372Y-17352460D01*
X14646372Y-17352460D02*
X14655896Y-17333412D01*
X14655896Y-17333412D02*
X14655896Y-17323889D01*
X14655896Y-17323889D02*
X14646372Y-17304841D01*
X14646372Y-17304841D02*
X14627325Y-17295317D01*
X14627325Y-17295317D02*
X14598753Y-17295317D01*
X14598753Y-17295317D02*
X14579706Y-17285793D01*
X14579706Y-17285793D02*
X14570182Y-17266746D01*
X14570182Y-17266746D02*
X14570182Y-17257222D01*
X14570182Y-17257222D02*
X14579706Y-17238174D01*
X14579706Y-17238174D02*
X14598753Y-17228650D01*
X14598753Y-17228650D02*
X14627325Y-17228650D01*
X14627325Y-17228650D02*
X14646372Y-17238174D01*
X14722563Y-17438174D02*
X14732087Y-17428650D01*
X14732087Y-17428650D02*
X14751134Y-17400079D01*
X14751134Y-17400079D02*
X14760658Y-17381031D01*
X14760658Y-17381031D02*
X14770182Y-17352460D01*
X14770182Y-17352460D02*
X14779706Y-17304841D01*
X14779706Y-17304841D02*
X14779706Y-17266746D01*
X14779706Y-17266746D02*
X14770182Y-17219127D01*
X14770182Y-17219127D02*
X14760658Y-17190555D01*
X14760658Y-17190555D02*
X14751134Y-17171508D01*
X14751134Y-17171508D02*
X14732087Y-17142936D01*
X14732087Y-17142936D02*
X14722563Y-17133412D01*
M02*
