M48
; DRILL file {KiCad 8.0.4} date 2024-11-11T12:12:10-0500
; FORMAT={-:-/ absolute / inch / decimal}
; #@! TF.CreationDate,2024-11-11T12:12:10-05:00
; #@! TF.GenerationSoftware,Kicad,Pcbnew,8.0.4
; #@! TF.FileFunction,Plated,1,2,PTH
FMAT,2
INCH
; #@! TA.AperFunction,Plated,PTH,ComponentDrill
T1C0.0354
; #@! TA.AperFunction,Plated,PTH,ComponentDrill
T2C0.0394
; #@! TA.AperFunction,Plated,PTH,ComponentDrill
T3C0.0402
%
G90
G05
T1
X4.4636Y-3.2185
X4.4636Y-3.3185
X5.5266Y-3.2382
X5.5266Y-3.3382
T2
X4.4685Y-3.6024
X4.4685Y-4.3898
X4.4685Y-4.8031
X4.7016Y-2.6575
X4.8016Y-2.6575
X4.9016Y-2.6575
X4.9016Y-3.0118
X4.9016Y-3.7992
X4.9016Y-4.1339
X4.9016Y-4.4094
X4.9016Y-5.1969
X5.5315Y-3.5827
X5.5315Y-4.3701
X5.5315Y-4.8031
T3
X4.7122Y-5.4478
X4.8122Y-5.4478
X4.9122Y-5.4478
X5.0122Y-5.4478
M30
