%TF.GenerationSoftware,KiCad,Pcbnew,8.0.4*%
%TF.CreationDate,2024-11-11T12:11:56-05:00*%
%TF.ProjectId,HC-SR04sensor,48432d53-5230-4347-9365-6e736f722e6b,rev?*%
%TF.SameCoordinates,Original*%
%TF.FileFunction,Drillmap*%
%TF.FilePolarity,Positive*%
%FSLAX45Y45*%
G04 Gerber Fmt 4.5, Leading zero omitted, Abs format (unit mm)*
G04 Created by KiCad (PCBNEW 8.0.4) date 2024-11-11 12:11:56*
%MOMM*%
%LPD*%
G01*
G04 APERTURE LIST*
%ADD10C,0.050000*%
%ADD11C,0.200000*%
G04 APERTURE END LIST*
D10*
X9950000Y-6450000D02*
X14750000Y-6450000D01*
X14750000Y-16100000D01*
X9950000Y-16100000D01*
X9950000Y-6450000D01*
D11*
X10208277Y-16413984D02*
X10208277Y-16213984D01*
X10208277Y-16213984D02*
X10255896Y-16213984D01*
X10255896Y-16213984D02*
X10284467Y-16223508D01*
X10284467Y-16223508D02*
X10303515Y-16242555D01*
X10303515Y-16242555D02*
X10313039Y-16261603D01*
X10313039Y-16261603D02*
X10322563Y-16299698D01*
X10322563Y-16299698D02*
X10322563Y-16328269D01*
X10322563Y-16328269D02*
X10313039Y-16366365D01*
X10313039Y-16366365D02*
X10303515Y-16385412D01*
X10303515Y-16385412D02*
X10284467Y-16404460D01*
X10284467Y-16404460D02*
X10255896Y-16413984D01*
X10255896Y-16413984D02*
X10208277Y-16413984D01*
X10408277Y-16413984D02*
X10408277Y-16280650D01*
X10408277Y-16318746D02*
X10417801Y-16299698D01*
X10417801Y-16299698D02*
X10427324Y-16290174D01*
X10427324Y-16290174D02*
X10446372Y-16280650D01*
X10446372Y-16280650D02*
X10465420Y-16280650D01*
X10532086Y-16413984D02*
X10532086Y-16280650D01*
X10532086Y-16213984D02*
X10522563Y-16223508D01*
X10522563Y-16223508D02*
X10532086Y-16233031D01*
X10532086Y-16233031D02*
X10541610Y-16223508D01*
X10541610Y-16223508D02*
X10532086Y-16213984D01*
X10532086Y-16213984D02*
X10532086Y-16233031D01*
X10655896Y-16413984D02*
X10636848Y-16404460D01*
X10636848Y-16404460D02*
X10627324Y-16385412D01*
X10627324Y-16385412D02*
X10627324Y-16213984D01*
X10760658Y-16413984D02*
X10741610Y-16404460D01*
X10741610Y-16404460D02*
X10732086Y-16385412D01*
X10732086Y-16385412D02*
X10732086Y-16213984D01*
X10989229Y-16413984D02*
X10989229Y-16213984D01*
X10989229Y-16213984D02*
X11055896Y-16356841D01*
X11055896Y-16356841D02*
X11122563Y-16213984D01*
X11122563Y-16213984D02*
X11122563Y-16413984D01*
X11303515Y-16413984D02*
X11303515Y-16309222D01*
X11303515Y-16309222D02*
X11293991Y-16290174D01*
X11293991Y-16290174D02*
X11274943Y-16280650D01*
X11274943Y-16280650D02*
X11236848Y-16280650D01*
X11236848Y-16280650D02*
X11217801Y-16290174D01*
X11303515Y-16404460D02*
X11284467Y-16413984D01*
X11284467Y-16413984D02*
X11236848Y-16413984D01*
X11236848Y-16413984D02*
X11217801Y-16404460D01*
X11217801Y-16404460D02*
X11208277Y-16385412D01*
X11208277Y-16385412D02*
X11208277Y-16366365D01*
X11208277Y-16366365D02*
X11217801Y-16347317D01*
X11217801Y-16347317D02*
X11236848Y-16337793D01*
X11236848Y-16337793D02*
X11284467Y-16337793D01*
X11284467Y-16337793D02*
X11303515Y-16328269D01*
X11398753Y-16280650D02*
X11398753Y-16480650D01*
X11398753Y-16290174D02*
X11417801Y-16280650D01*
X11417801Y-16280650D02*
X11455896Y-16280650D01*
X11455896Y-16280650D02*
X11474943Y-16290174D01*
X11474943Y-16290174D02*
X11484467Y-16299698D01*
X11484467Y-16299698D02*
X11493991Y-16318746D01*
X11493991Y-16318746D02*
X11493991Y-16375888D01*
X11493991Y-16375888D02*
X11484467Y-16394936D01*
X11484467Y-16394936D02*
X11474943Y-16404460D01*
X11474943Y-16404460D02*
X11455896Y-16413984D01*
X11455896Y-16413984D02*
X11417801Y-16413984D01*
X11417801Y-16413984D02*
X11398753Y-16404460D01*
X11579705Y-16394936D02*
X11589229Y-16404460D01*
X11589229Y-16404460D02*
X11579705Y-16413984D01*
X11579705Y-16413984D02*
X11570182Y-16404460D01*
X11570182Y-16404460D02*
X11579705Y-16394936D01*
X11579705Y-16394936D02*
X11579705Y-16413984D01*
X11579705Y-16290174D02*
X11589229Y-16299698D01*
X11589229Y-16299698D02*
X11579705Y-16309222D01*
X11579705Y-16309222D02*
X11570182Y-16299698D01*
X11570182Y-16299698D02*
X11579705Y-16290174D01*
X11579705Y-16290174D02*
X11579705Y-16309222D01*
M02*
