%TF.GenerationSoftware,KiCad,Pcbnew,8.0.4*%
%TF.CreationDate,2024-11-11T12:12:06-05:00*%
%TF.ProjectId,HC-SR04sensor,48432d53-5230-4347-9365-6e736f722e6b,rev?*%
%TF.SameCoordinates,Original*%
%TF.FileFunction,Copper,L1,Top*%
%TF.FilePolarity,Positive*%
%FSLAX46Y46*%
G04 Gerber Fmt 4.6, Leading zero omitted, Abs format (unit mm)*
G04 Created by KiCad (PCBNEW 8.0.4) date 2024-11-11 12:12:06*
%MOMM*%
%LPD*%
G01*
G04 APERTURE LIST*
%TA.AperFunction,ComponentPad*%
%ADD10C,2.390000*%
%TD*%
%TA.AperFunction,ComponentPad*%
%ADD11R,1.700000X1.700000*%
%TD*%
%TA.AperFunction,ComponentPad*%
%ADD12R,1.800000X1.800000*%
%TD*%
%TA.AperFunction,ComponentPad*%
%ADD13C,1.800000*%
%TD*%
%TA.AperFunction,ComponentPad*%
%ADD14O,1.700000X1.700000*%
%TD*%
%TA.AperFunction,ComponentPad*%
%ADD15C,1.530000*%
%TD*%
%TA.AperFunction,Conductor*%
%ADD16C,0.200000*%
%TD*%
G04 APERTURE END LIST*
D10*
%TO.P,R3,1*%
%TO.N,Net-(J4-Pin_1)*%
X140500000Y-111000000D03*
%TO.P,R3,2*%
%TO.N,Net-(D2-A)*%
X140500000Y-91000000D03*
%TD*%
%TO.P,R2,1*%
%TO.N,Net-(J3-Pin_1)*%
X113500000Y-111500000D03*
%TO.P,R2,2*%
%TO.N,Net-(D1-A)*%
X113500000Y-91500000D03*
%TD*%
D11*
%TO.P,J4,1,Pin_1*%
%TO.N,Net-(J4-Pin_1)*%
X140500000Y-122000000D03*
%TD*%
%TO.P,J3,1,Pin_1*%
%TO.N,Net-(J3-Pin_1)*%
X113500000Y-122000000D03*
%TD*%
D12*
%TO.P,D1,1,K*%
%TO.N,Net-(D1-K)*%
X113375000Y-81750000D03*
D13*
%TO.P,D1,2,A*%
%TO.N,Net-(D1-A)*%
X113375000Y-84290000D03*
%TD*%
D11*
%TO.P,J1,1,Pin_1*%
%TO.N,Net-(J1-Pin_1)*%
X124500000Y-105000000D03*
%TD*%
D10*
%TO.P,R1,1*%
%TO.N,Net-(U1-ECHO)*%
X124500000Y-132000000D03*
%TO.P,R1,2*%
%TO.N,Net-(J1-Pin_1)*%
X124500000Y-112000000D03*
%TD*%
D11*
%TO.P,J2,1,Pin_1*%
%TO.N,Net-(D1-K)*%
X124500000Y-67500000D03*
D14*
%TO.P,J2,2,Pin_2*%
%TO.N,Net-(J2-Pin_2)*%
X121960000Y-67500000D03*
%TO.P,J2,3,Pin_3*%
%TO.N,Net-(J2-Pin_3)*%
X119420000Y-67500000D03*
%TD*%
D15*
%TO.P,U1,1,VCC*%
%TO.N,Net-(J2-Pin_3)*%
X119690000Y-138375000D03*
%TO.P,U1,2,TRIG*%
%TO.N,Net-(J2-Pin_2)*%
X122230000Y-138375000D03*
%TO.P,U1,3,ECHO*%
%TO.N,Net-(U1-ECHO)*%
X124770000Y-138375000D03*
%TO.P,U1,4,GND*%
%TO.N,Net-(D1-K)*%
X127310000Y-138375000D03*
%TD*%
D10*
%TO.P,R5,1*%
%TO.N,Net-(J1-Pin_1)*%
X124500000Y-96500000D03*
%TO.P,R5,2*%
%TO.N,Net-(D1-K)*%
X124500000Y-76500000D03*
%TD*%
D12*
%TO.P,D2,1,K*%
%TO.N,Net-(D1-K)*%
X140375000Y-82250000D03*
D13*
%TO.P,D2,2,A*%
%TO.N,Net-(D2-A)*%
X140375000Y-84790000D03*
%TD*%
D16*
%TO.N,Net-(U1-ECHO)*%
X124500000Y-132000000D02*
X124500000Y-132500000D01*
X124770000Y-132770000D02*
X124770000Y-138375000D01*
X124500000Y-132500000D02*
X124770000Y-132770000D01*
%TO.N,Net-(J2-Pin_3)*%
X119690000Y-138375000D02*
X119690000Y-67770000D01*
X119690000Y-67770000D02*
X119420000Y-67500000D01*
%TO.N,Net-(J2-Pin_2)*%
X122230000Y-105030000D02*
X122230000Y-138375000D01*
X121960000Y-104760000D02*
X122230000Y-105030000D01*
X121960000Y-67500000D02*
X121960000Y-104760000D01*
%TO.N,Net-(D1-K)*%
X124500000Y-67500000D02*
X124500000Y-76500000D01*
X127310000Y-70310000D02*
X124500000Y-67500000D01*
X127310000Y-138375000D02*
X127310000Y-70310000D01*
%TD*%
M02*
